<?xml version="1.0" encoding="UTF-8"?>
<mxfile host="app.diagrams.net" modified="2024-12-19T20:00:00.000Z" agent="5.0" etag="professional-horizontal-bpmn" version="24.7.17">
  <diagram name="TechnoSvit - Professional Horizontal BPMN" id="professional-horizontal-bpmn">
    <mxGraphModel dx="2074" dy="1406" grid="1" gridSize="10" guides="1" tooltips="1" connect="1" arrows="1" fold="1" page="1" pageScale="1" pageWidth="1169" pageHeight="827" math="0" shadow="0">
      <root>
    <mxCell id="0"/>
    <mxCell id="1" parent="0"/>
    <mxCell id="bpmn_1" value="TechnoSvit Web Store - Item Purchase Process" style="swimlane;html=1;childLayout=stackLayout;resizeParent=1;resizeParentMax=0;horizontal=1;startSize=40;horizontalStack=0;collapsible=0;swimlaneLine=1;fillColor=#ffffff;strokeColor=#000000;fontStyle=1;fontSize=16;fontColor=#000000;" vertex="1" parent="1">
      <mxGeometry x="30" y="30" width="1800" height="600" as="geometry"/>
    </mxCell>
    <mxCell id="bpmn_2" value="Customer" style="swimlane;html=1;startSize=40;horizontal=1;swimlaneLine=1;fillColor=#e1f5fe;strokeColor=#01579b;fontSize=14;fontColor=#000000;resizeParent=1;resizeParentMax=0;" vertex="1" parent="bpmn_1">
      <mxGeometry x="30" y="70" width="1770" height="120" as="geometry"/>
    </mxCell>
    <mxCell id="bpmn_3" value="Web Application" style="swimlane;html=1;startSize=40;horizontal=1;swimlaneLine=1;fillColor=#f3e5f5;strokeColor=#4a148c;fontSize=14;fontColor=#000000;resizeParent=1;resizeParentMax=0;" vertex="1" parent="bpmn_1">
      <mxGeometry x="30" y="190" width="1770" height="120" as="geometry"/>
    </mxCell>
    <mxCell id="bpmn_4" value="Business Logic" style="swimlane;html=1;startSize=40;horizontal=1;swimlaneLine=1;fillColor=#e8f5e8;strokeColor=#2e7d32;fontSize=14;fontColor=#000000;resizeParent=1;resizeParentMax=0;" vertex="1" parent="bpmn_1">
      <mxGeometry x="30" y="310" width="1770" height="120" as="geometry"/>
    </mxCell>
    <mxCell id="bpmn_5" value="Data Layer" style="swimlane;html=1;startSize=40;horizontal=1;swimlaneLine=1;fillColor=#fff3e0;strokeColor=#e65100;fontSize=14;fontColor=#000000;resizeParent=1;resizeParentMax=0;" vertex="1" parent="bpmn_1">
      <mxGeometry x="30" y="430" width="1770" height="120" as="geometry"/>
    </mxCell>
    <mxCell id="bpmn_6" value="Payment Gateway" style="swimlane;html=1;childLayout=stackLayout;resizeParent=1;resizeParentMax=0;horizontal=1;startSize=40;horizontalStack=0;collapsible=0;swimlaneLine=1;fillColor=#ffebee;strokeColor=#c62828;fontStyle=1;fontSize=16;fontColor=#000000;" vertex="1" parent="1">
      <mxGeometry x="30" y="680" width="800" height="100" as="geometry"/>
    </mxCell>
    <mxCell id="bpmn_7" value="âœ‰ Visit\nWebsite" style="ellipse;whiteSpace=wrap;html=1;aspect=fixed;fillColor=#D5E8D4;strokeColor=#82B366;strokeWidth=3;fontSize=10;fontColor=#000000;" vertex="1" parent="bpmn_2">
      <mxGeometry x="80" y="125" width="50" height="50" as="geometry"/>
    </mxCell>
    <mxCell id="bpmn_8" value="ðŸ‘¤ Browse\nProducts" style="rounded=1;whiteSpace=wrap;html=1;fillColor=#DAE8FC;strokeColor=#6C8EBF;strokeWidth=2;fontSize=11;fontColor=#000000;" vertex="1" parent="bpmn_2">
      <mxGeometry x="240" y="125" width="120" height="60" as="geometry"/>
    </mxCell>
    <mxCell id="bpmn_10" value="âœ• Select?" style="rhombus;whiteSpace=wrap;html=1;fillColor=#FFF2CC;strokeColor=#D6B656;strokeWidth=3;fontSize=10;fontColor=#000000;" vertex="1" parent="bpmn_2">
      <mxGeometry x="400" y="125" width="50" height="50" as="geometry"/>
    </mxCell>
    <mxCell id="bpmn_12" value="ðŸ‘¤ Add to\nCart" style="rounded=1;whiteSpace=wrap;html=1;fillColor=#DAE8FC;strokeColor=#6C8EBF;strokeWidth=2;fontSize=11;fontColor=#000000;" vertex="1" parent="bpmn_2">
      <mxGeometry x="560" y="125" width="120" height="60" as="geometry"/>
    </mxCell>
    <mxCell id="bpmn_14" value="âœ• Checkout?" style="rhombus;whiteSpace=wrap;html=1;fillColor=#FFF2CC;strokeColor=#D6B656;strokeWidth=3;fontSize=10;fontColor=#000000;" vertex="1" parent="bpmn_2">
      <mxGeometry x="720" y="125" width="50" height="50" as="geometry"/>
    </mxCell>
    <mxCell id="bpmn_16" value="ðŸ‘¤ Checkout" style="rounded=1;whiteSpace=wrap;html=1;fillColor=#DAE8FC;strokeColor=#6C8EBF;strokeWidth=2;fontSize=11;fontColor=#000000;" vertex="1" parent="bpmn_2">
      <mxGeometry x="880" y="125" width="120" height="60" as="geometry"/>
    </mxCell>
    <mxCell id="bpmn_18" value="ðŸ‘¤ Fill\nDetails" style="rounded=1;whiteSpace=wrap;html=1;fillColor=#DAE8FC;strokeColor=#6C8EBF;strokeWidth=2;fontSize=11;fontColor=#000000;" vertex="1" parent="bpmn_2">
      <mxGeometry x="1040" y="125" width="120" height="60" as="geometry"/>
    </mxCell>
    <mxCell id="bpmn_20" value="ðŸ‘¤ Make\nPayment" style="rounded=1;whiteSpace=wrap;html=1;fillColor=#DAE8FC;strokeColor=#6C8EBF;strokeWidth=2;fontSize=11;fontColor=#000000;" vertex="1" parent="bpmn_2">
      <mxGeometry x="1200" y="125" width="120" height="60" as="geometry"/>
    </mxCell>
    <mxCell id="bpmn_22" value="âœ‰ Order\nComplete" style="ellipse;whiteSpace=wrap;html=1;aspect=fixed;fillColor=#F8CECC;strokeColor=#B85450;strokeWidth=6;fontSize=10;fontColor=#000000;" vertex="1" parent="bpmn_2">
      <mxGeometry x="1360" y="125" width="50" height="50" as="geometry"/>
    </mxCell>
    <mxCell id="bpmn_26" value="ðŸ“¥ Handle\nRequest" style="rounded=1;whiteSpace=wrap;html=1;fillColor=#D5E8D4;strokeColor=#82B366;strokeWidth=2;fontSize=11;fontColor=#000000;" vertex="1" parent="bpmn_3">
      <mxGeometry x="80" y="245" width="120" height="60" as="geometry"/>
    </mxCell>
    <mxCell id="bpmn_28" value="âš™ Load\nCatalog" style="rounded=1;whiteSpace=wrap;html=1;fillColor=#E1D5E7;strokeColor=#9673A6;strokeWidth=2;fontSize=11;fontColor=#000000;" vertex="1" parent="bpmn_3">
      <mxGeometry x="240" y="245" width="120" height="60" as="geometry"/>
    </mxCell>
    <mxCell id="bpmn_30" value="âš™ Render\nPage" style="rounded=1;whiteSpace=wrap;html=1;fillColor=#E1D5E7;strokeColor=#9673A6;strokeWidth=2;fontSize=11;fontColor=#000000;" vertex="1" parent="bpmn_3">
      <mxGeometry x="400" y="245" width="120" height="60" as="geometry"/>
    </mxCell>
    <mxCell id="bpmn_32" value="âš™ Manage\nCart" style="rounded=1;whiteSpace=wrap;html=1;fillColor=#E1D5E7;strokeColor=#9673A6;strokeWidth=2;fontSize=11;fontColor=#000000;" vertex="1" parent="bpmn_3">
      <mxGeometry x="560" y="245" width="120" height="60" as="geometry"/>
    </mxCell>
    <mxCell id="bpmn_34" value="âš™ Process\nCheckout" style="rounded=1;whiteSpace=wrap;html=1;fillColor=#E1D5E7;strokeColor=#9673A6;strokeWidth=2;fontSize=11;fontColor=#000000;" vertex="1" parent="bpmn_3">
      <mxGeometry x="720" y="245" width="120" height="60" as="geometry"/>
    </mxCell>
    <mxCell id="bpmn_36" value="âš™ Process\nOrder" style="rounded=1;whiteSpace=wrap;html=1;fillColor=#E1D5E7;strokeColor=#9673A6;strokeWidth=2;fontSize=11;fontColor=#000000;" vertex="1" parent="bpmn_3">
      <mxGeometry x="880" y="245" width="120" height="60" as="geometry"/>
    </mxCell>
    <mxCell id="bpmn_38" value="âš™ Handle\nPayment" style="rounded=1;whiteSpace=wrap;html=1;fillColor=#E1D5E7;strokeColor=#9673A6;strokeWidth=2;fontSize=11;fontColor=#000000;" vertex="1" parent="bpmn_3">
      <mxGeometry x="1040" y="245" width="120" height="60" as="geometry"/>
    </mxCell>
    <mxCell id="bpmn_40" value="ðŸ“¤ Send\nConfirm" style="rounded=1;whiteSpace=wrap;html=1;fillColor=#F8CECC;strokeColor=#B85450;strokeWidth=2;fontSize=11;fontColor=#000000;" vertex="1" parent="bpmn_3">
      <mxGeometry x="1200" y="245" width="120" height="60" as="geometry"/>
    </mxCell>
    <mxCell id="bpmn_42" value="Web\nComplete" style="ellipse;whiteSpace=wrap;html=1;aspect=fixed;fillColor=#F8CECC;strokeColor=#B85450;strokeWidth=6;fontSize=10;fontColor=#000000;" vertex="1" parent="bpmn_3">
      <mxGeometry x="1360" y="245" width="50" height="50" as="geometry"/>
    </mxCell>
    <mxCell id="bpmn_44" value="ðŸ“¥ Receive\nOrder" style="rounded=1;whiteSpace=wrap;html=1;fillColor=#D5E8D4;strokeColor=#82B366;strokeWidth=2;fontSize=11;fontColor=#000000;" vertex="1" parent="bpmn_4">
      <mxGeometry x="80" y="365" width="120" height="60" as="geometry"/>
    </mxCell>
    <mxCell id="bpmn_46" value="âš™ Authenticate" style="rounded=1;whiteSpace=wrap;html=1;fillColor=#E1D5E7;strokeColor=#9673A6;strokeWidth=2;fontSize=11;fontColor=#000000;" vertex="1" parent="bpmn_4">
      <mxGeometry x="240" y="365" width="120" height="60" as="geometry"/>
    </mxCell>
    <mxCell id="bpmn_48" value="âš™ Validate\nCart" style="rounded=1;whiteSpace=wrap;html=1;fillColor=#E1D5E7;strokeColor=#9673A6;strokeWidth=2;fontSize=11;fontColor=#000000;" vertex="1" parent="bpmn_4">
      <mxGeometry x="400" y="365" width="120" height="60" as="geometry"/>
    </mxCell>
    <mxCell id="bpmn_50" value="âœ• Valid?" style="rhombus;whiteSpace=wrap;html=1;fillColor=#FFF2CC;strokeColor=#D6B656;strokeWidth=3;fontSize=10;fontColor=#000000;" vertex="1" parent="bpmn_4">
      <mxGeometry x="560" y="365" width="50" height="50" as="geometry"/>
    </mxCell>
    <mxCell id="bpmn_52" value="âš™ Create\nOrder" style="rounded=1;whiteSpace=wrap;html=1;fillColor=#E1D5E7;strokeColor=#9673A6;strokeWidth=2;fontSize=11;fontColor=#000000;" vertex="1" parent="bpmn_4">
      <mxGeometry x="720" y="365" width="120" height="60" as="geometry"/>
    </mxCell>
    <mxCell id="bpmn_54" value="âš™ Update\nInventory" style="rounded=1;whiteSpace=wrap;html=1;fillColor=#E1D5E7;strokeColor=#9673A6;strokeWidth=2;fontSize=11;fontColor=#000000;" vertex="1" parent="bpmn_4">
      <mxGeometry x="880" y="365" width="120" height="60" as="geometry"/>
    </mxCell>
    <mxCell id="bpmn_56" value="ðŸ’» Generate\nInvoice" style="rounded=1;whiteSpace=wrap;html=1;fillColor=#FFF2CC;strokeColor=#D6B656;strokeWidth=2;fontSize=11;fontColor=#000000;" vertex="1" parent="bpmn_4">
      <mxGeometry x="1040" y="365" width="120" height="60" as="geometry"/>
    </mxCell>
    <mxCell id="bpmn_58" value="Business\nComplete" style="ellipse;whiteSpace=wrap;html=1;aspect=fixed;fillColor=#F8CECC;strokeColor=#B85450;strokeWidth=6;fontSize=10;fontColor=#000000;" vertex="1" parent="bpmn_4">
      <mxGeometry x="1200" y="365" width="50" height="50" as="geometry"/>
    </mxCell>
    <mxCell id="bpmn_60" value="âš  Error" style="ellipse;whiteSpace=wrap;html=1;aspect=fixed;fillColor=#F8CECC;strokeColor=#B85450;strokeWidth=6;fontSize=10;fontColor=#000000;" vertex="1" parent="bpmn_4">
      <mxGeometry x="880" y="405" width="50" height="50" as="geometry"/>
    </mxCell>
    <mxCell id="bpmn_62" value="Products\nDB" style="shape=cylinder3;whiteSpace=wrap;html=1;boundedLbl=1;backgroundOutline=1;size=15;fillColor=#F5F5F5;strokeColor=#666666;fontSize=10;fontColor=#000000;" vertex="1" parent="bpmn_5">
      <mxGeometry x="200" y="485" width="80" height="60" as="geometry"/>
    </mxCell>
    <mxCell id="bpmn_63" value="Orders\nDB" style="shape=cylinder3;whiteSpace=wrap;html=1;boundedLbl=1;backgroundOutline=1;size=15;fillColor=#F5F5F5;strokeColor=#666666;fontSize=10;fontColor=#000000;" vertex="1" parent="bpmn_5">
      <mxGeometry x="350" y="485" width="80" height="60" as="geometry"/>
    </mxCell>
    <mxCell id="bpmn_64" value="Users\nDB" style="shape=cylinder3;whiteSpace=wrap;html=1;boundedLbl=1;backgroundOutline=1;size=15;fillColor=#F5F5F5;strokeColor=#666666;fontSize=10;fontColor=#000000;" vertex="1" parent="bpmn_5">
      <mxGeometry x="500" y="485" width="80" height="60" as="geometry"/>
    </mxCell>
    <mxCell id="bpmn_65" value="Cart\nDB" style="shape=cylinder3;whiteSpace=wrap;html=1;boundedLbl=1;backgroundOutline=1;size=15;fillColor=#F5F5F5;strokeColor=#666666;fontSize=10;fontColor=#000000;" vertex="1" parent="bpmn_5">
      <mxGeometry x="650" y="485" width="80" height="60" as="geometry"/>
    </mxCell>
    <mxCell id="bpmn_66" value="Inventory\nDB" style="shape=cylinder3;whiteSpace=wrap;html=1;boundedLbl=1;backgroundOutline=1;size=15;fillColor=#F5F5F5;strokeColor=#666666;fontSize=10;fontColor=#000000;" vertex="1" parent="bpmn_5">
      <mxGeometry x="800" y="485" width="80" height="60" as="geometry"/>
    </mxCell>
    <mxCell id="bpmn_67" value="âš™ Payment\nGateway" style="rounded=1;whiteSpace=wrap;html=1;fillColor=#E1D5E7;strokeColor=#9673A6;strokeWidth=2;fontSize=11;fontColor=#000000;" vertex="1" parent="bpmn_6">
      <mxGeometry x="200" y="720" width="120" height="60" as="geometry"/>
    </mxCell>
    <mxCell id="bpmn_69" value="âš™ Validate\nPayment" style="rounded=1;whiteSpace=wrap;html=1;fillColor=#E1D5E7;strokeColor=#9673A6;strokeWidth=2;fontSize=11;fontColor=#000000;" vertex="1" parent="bpmn_6">
      <mxGeometry x="360" y="720" width="120" height="60" as="geometry"/>
    </mxCell>
    <mxCell id="bpmn_71" value="âœ• Result?" style="rhombus;whiteSpace=wrap;html=1;fillColor=#FFF2CC;strokeColor=#D6B656;strokeWidth=3;fontSize=10;fontColor=#000000;" vertex="1" parent="bpmn_6">
      <mxGeometry x="520" y="720" width="50" height="50" as="geometry"/>
    </mxCell>
    <mxCell id="bpmn_73" value="Success" style="ellipse;whiteSpace=wrap;html=1;aspect=fixed;fillColor=#F8CECC;strokeColor=#B85450;strokeWidth=6;fontSize=10;fontColor=#000000;" vertex="1" parent="bpmn_6">
      <mxGeometry x="640" y="720" width="50" height="50" as="geometry"/>
    </mxCell>
    <mxCell id="bpmn_76" value="âš  Failed" style="ellipse;whiteSpace=wrap;html=1;aspect=fixed;fillColor=#F8CECC;strokeColor=#B85450;strokeWidth=6;fontSize=10;fontColor=#000000;" vertex="1" parent="bpmn_6">
      <mxGeometry x="640" y="760" width="50" height="50" as="geometry"/>
    </mxCell>
    <mxCell id="bpmn_9" value="" style="edgeStyle=orthogonalEdgeStyle;rounded=0;orthogonalLoop=1;jettySize=auto;html=1;strokeWidth=2;strokeColor=#000000;endArrow=classic;endSize=8;" edge="1" parent="1" source="bpmn_7" target="bpmn_8">
      <mxGeometry relative="1" as="geometry"/>
    </mxCell>
    <mxCell id="bpmn_11" value="" style="edgeStyle=orthogonalEdgeStyle;rounded=0;orthogonalLoop=1;jettySize=auto;html=1;strokeWidth=2;strokeColor=#000000;endArrow=classic;endSize=8;" edge="1" parent="1" source="bpmn_8" target="bpmn_10">
      <mxGeometry relative="1" as="geometry"/>
    </mxCell>
    <mxCell id="bpmn_13" value="Yes" style="edgeStyle=orthogonalEdgeStyle;rounded=0;orthogonalLoop=1;jettySize=auto;html=1;strokeWidth=2;strokeColor=#000000;endArrow=classic;endSize=8;" edge="1" parent="1" source="bpmn_10" target="bpmn_12">
      <mxGeometry relative="1" as="geometry"/>
    </mxCell>
    <mxCell id="bpmn_15" value="" style="edgeStyle=orthogonalEdgeStyle;rounded=0;orthogonalLoop=1;jettySize=auto;html=1;strokeWidth=2;strokeColor=#000000;endArrow=classic;endSize=8;" edge="1" parent="1" source="bpmn_12" target="bpmn_14">
      <mxGeometry relative="1" as="geometry"/>
    </mxCell>
    <mxCell id="bpmn_17" value="Yes" style="edgeStyle=orthogonalEdgeStyle;rounded=0;orthogonalLoop=1;jettySize=auto;html=1;strokeWidth=2;strokeColor=#000000;endArrow=classic;endSize=8;" edge="1" parent="1" source="bpmn_14" target="bpmn_16">
      <mxGeometry relative="1" as="geometry"/>
    </mxCell>
    <mxCell id="bpmn_19" value="" style="edgeStyle=orthogonalEdgeStyle;rounded=0;orthogonalLoop=1;jettySize=auto;html=1;strokeWidth=2;strokeColor=#000000;endArrow=classic;endSize=8;" edge="1" parent="1" source="bpmn_16" target="bpmn_18">
      <mxGeometry relative="1" as="geometry"/>
    </mxCell>
    <mxCell id="bpmn_21" value="" style="edgeStyle=orthogonalEdgeStyle;rounded=0;orthogonalLoop=1;jettySize=auto;html=1;strokeWidth=2;strokeColor=#000000;endArrow=classic;endSize=8;" edge="1" parent="1" source="bpmn_18" target="bpmn_20">
      <mxGeometry relative="1" as="geometry"/>
    </mxCell>
    <mxCell id="bpmn_23" value="" style="edgeStyle=orthogonalEdgeStyle;rounded=0;orthogonalLoop=1;jettySize=auto;html=1;strokeWidth=2;strokeColor=#000000;endArrow=classic;endSize=8;" edge="1" parent="1" source="bpmn_20" target="bpmn_22">
      <mxGeometry relative="1" as="geometry"/>
    </mxCell>
    <mxCell id="bpmn_24" value="No" style="edgeStyle=orthogonalEdgeStyle;rounded=0;orthogonalLoop=1;jettySize=auto;html=1;strokeWidth=2;strokeColor=#000000;endArrow=classic;endSize=8;" edge="1" parent="1" source="bpmn_10" target="bpmn_8">
      <mxGeometry relative="1" as="geometry"/>
    </mxCell>
    <mxCell id="bpmn_25" value="Continue" style="edgeStyle=orthogonalEdgeStyle;rounded=0;orthogonalLoop=1;jettySize=auto;html=1;strokeWidth=2;strokeColor=#000000;endArrow=classic;endSize=8;" edge="1" parent="1" source="bpmn_14" target="bpmn_8">
      <mxGeometry relative="1" as="geometry"/>
    </mxCell>
    <mxCell id="bpmn_27" value="" style="edgeStyle=orthogonalEdgeStyle;rounded=0;orthogonalLoop=1;jettySize=auto;html=1;strokeWidth=2;strokeColor=#0066CC;dashed=1;dashPattern=8 8;startArrow=none;endArrow=classic;endSize=8;" edge="1" parent="1" source="bpmn_7" target="bpmn_26">
      <mxGeometry relative="1" as="geometry"/>
    </mxCell>
    <mxCell id="bpmn_29" value="" style="edgeStyle=orthogonalEdgeStyle;rounded=0;orthogonalLoop=1;jettySize=auto;html=1;strokeWidth=2;strokeColor=#000000;endArrow=classic;endSize=8;" edge="1" parent="1" source="bpmn_26" target="bpmn_28">
      <mxGeometry relative="1" as="geometry"/>
    </mxCell>
    <mxCell id="bpmn_31" value="" style="edgeStyle=orthogonalEdgeStyle;rounded=0;orthogonalLoop=1;jettySize=auto;html=1;strokeWidth=2;strokeColor=#000000;endArrow=classic;endSize=8;" edge="1" parent="1" source="bpmn_28" target="bpmn_30">
      <mxGeometry relative="1" as="geometry"/>
    </mxCell>
    <mxCell id="bpmn_33" value="" style="edgeStyle=orthogonalEdgeStyle;rounded=0;orthogonalLoop=1;jettySize=auto;html=1;strokeWidth=2;strokeColor=#000000;endArrow=classic;endSize=8;" edge="1" parent="1" source="bpmn_30" target="bpmn_32">
      <mxGeometry relative="1" as="geometry"/>
    </mxCell>
    <mxCell id="bpmn_35" value="" style="edgeStyle=orthogonalEdgeStyle;rounded=0;orthogonalLoop=1;jettySize=auto;html=1;strokeWidth=2;strokeColor=#000000;endArrow=classic;endSize=8;" edge="1" parent="1" source="bpmn_32" target="bpmn_34">
      <mxGeometry relative="1" as="geometry"/>
    </mxCell>
    <mxCell id="bpmn_37" value="" style="edgeStyle=orthogonalEdgeStyle;rounded=0;orthogonalLoop=1;jettySize=auto;html=1;strokeWidth=2;strokeColor=#000000;endArrow=classic;endSize=8;" edge="1" parent="1" source="bpmn_34" target="bpmn_36">
      <mxGeometry relative="1" as="geometry"/>
    </mxCell>
    <mxCell id="bpmn_39" value="" style="edgeStyle=orthogonalEdgeStyle;rounded=0;orthogonalLoop=1;jettySize=auto;html=1;strokeWidth=2;strokeColor=#000000;endArrow=classic;endSize=8;" edge="1" parent="1" source="bpmn_36" target="bpmn_38">
      <mxGeometry relative="1" as="geometry"/>
    </mxCell>
    <mxCell id="bpmn_41" value="" style="edgeStyle=orthogonalEdgeStyle;rounded=0;orthogonalLoop=1;jettySize=auto;html=1;strokeWidth=2;strokeColor=#000000;endArrow=classic;endSize=8;" edge="1" parent="1" source="bpmn_38" target="bpmn_40">
      <mxGeometry relative="1" as="geometry"/>
    </mxCell>
    <mxCell id="bpmn_43" value="" style="edgeStyle=orthogonalEdgeStyle;rounded=0;orthogonalLoop=1;jettySize=auto;html=1;strokeWidth=2;strokeColor=#000000;endArrow=classic;endSize=8;" edge="1" parent="1" source="bpmn_40" target="bpmn_42">
      <mxGeometry relative="1" as="geometry"/>
    </mxCell>
    <mxCell id="bpmn_45" value="" style="edgeStyle=orthogonalEdgeStyle;rounded=0;orthogonalLoop=1;jettySize=auto;html=1;strokeWidth=2;strokeColor=#0066CC;dashed=1;dashPattern=8 8;startArrow=none;endArrow=classic;endSize=8;" edge="1" parent="1" source="bpmn_36" target="bpmn_44">
      <mxGeometry relative="1" as="geometry"/>
    </mxCell>
    <mxCell id="bpmn_47" value="" style="edgeStyle=orthogonalEdgeStyle;rounded=0;orthogonalLoop=1;jettySize=auto;html=1;strokeWidth=2;strokeColor=#000000;endArrow=classic;endSize=8;" edge="1" parent="1" source="bpmn_44" target="bpmn_46">
      <mxGeometry relative="1" as="geometry"/>
    </mxCell>
    <mxCell id="bpmn_49" value="" style="edgeStyle=orthogonalEdgeStyle;rounded=0;orthogonalLoop=1;jettySize=auto;html=1;strokeWidth=2;strokeColor=#000000;endArrow=classic;endSize=8;" edge="1" parent="1" source="bpmn_46" target="bpmn_48">
      <mxGeometry relative="1" as="geometry"/>
    </mxCell>
    <mxCell id="bpmn_51" value="" style="edgeStyle=orthogonalEdgeStyle;rounded=0;orthogonalLoop=1;jettySize=auto;html=1;strokeWidth=2;strokeColor=#000000;endArrow=classic;endSize=8;" edge="1" parent="1" source="bpmn_48" target="bpmn_50">
      <mxGeometry relative="1" as="geometry"/>
    </mxCell>
    <mxCell id="bpmn_53" value="Valid" style="edgeStyle=orthogonalEdgeStyle;rounded=0;orthogonalLoop=1;jettySize=auto;html=1;strokeWidth=2;strokeColor=#000000;endArrow=classic;endSize=8;" edge="1" parent="1" source="bpmn_50" target="bpmn_52">
      <mxGeometry relative="1" as="geometry"/>
    </mxCell>
    <mxCell id="bpmn_55" value="" style="edgeStyle=orthogonalEdgeStyle;rounded=0;orthogonalLoop=1;jettySize=auto;html=1;strokeWidth=2;strokeColor=#000000;endArrow=classic;endSize=8;" edge="1" parent="1" source="bpmn_52" target="bpmn_54">
      <mxGeometry relative="1" as="geometry"/>
    </mxCell>
    <mxCell id="bpmn_57" value="" style="edgeStyle=orthogonalEdgeStyle;rounded=0;orthogonalLoop=1;jettySize=auto;html=1;strokeWidth=2;strokeColor=#000000;endArrow=classic;endSize=8;" edge="1" parent="1" source="bpmn_54" target="bpmn_56">
      <mxGeometry relative="1" as="geometry"/>
    </mxCell>
    <mxCell id="bpmn_59" value="" style="edgeStyle=orthogonalEdgeStyle;rounded=0;orthogonalLoop=1;jettySize=auto;html=1;strokeWidth=2;strokeColor=#000000;endArrow=classic;endSize=8;" edge="1" parent="1" source="bpmn_56" target="bpmn_58">
      <mxGeometry relative="1" as="geometry"/>
    </mxCell>
    <mxCell id="bpmn_61" value="Invalid" style="edgeStyle=orthogonalEdgeStyle;rounded=0;orthogonalLoop=1;jettySize=auto;html=1;strokeWidth=2;strokeColor=#000000;endArrow=classic;endSize=8;" edge="1" parent="1" source="bpmn_50" target="bpmn_60">
      <mxGeometry relative="1" as="geometry"/>
    </mxCell>
    <mxCell id="bpmn_68" value="" style="edgeStyle=orthogonalEdgeStyle;rounded=0;orthogonalLoop=1;jettySize=auto;html=1;strokeWidth=2;strokeColor=#0066CC;dashed=1;dashPattern=8 8;startArrow=none;endArrow=classic;endSize=8;" edge="1" parent="1" source="bpmn_20" target="bpmn_67">
      <mxGeometry relative="1" as="geometry"/>
    </mxCell>
    <mxCell id="bpmn_70" value="" style="edgeStyle=orthogonalEdgeStyle;rounded=0;orthogonalLoop=1;jettySize=auto;html=1;strokeWidth=2;strokeColor=#000000;endArrow=classic;endSize=8;" edge="1" parent="1" source="bpmn_67" target="bpmn_69">
      <mxGeometry relative="1" as="geometry"/>
    </mxCell>
    <mxCell id="bpmn_72" value="" style="edgeStyle=orthogonalEdgeStyle;rounded=0;orthogonalLoop=1;jettySize=auto;html=1;strokeWidth=2;strokeColor=#000000;endArrow=classic;endSize=8;" edge="1" parent="1" source="bpmn_69" target="bpmn_71">
      <mxGeometry relative="1" as="geometry"/>
    </mxCell>
    <mxCell id="bpmn_74" value="Success" style="edgeStyle=orthogonalEdgeStyle;rounded=0;orthogonalLoop=1;jettySize=auto;html=1;strokeWidth=2;strokeColor=#000000;endArrow=classic;endSize=8;" edge="1" parent="1" source="bpmn_71" target="bpmn_73">
      <mxGeometry relative="1" as="geometry"/>
    </mxCell>
    <mxCell id="bpmn_75" value="" style="edgeStyle=orthogonalEdgeStyle;rounded=0;orthogonalLoop=1;jettySize=auto;html=1;strokeWidth=2;strokeColor=#0066CC;dashed=1;dashPattern=8 8;startArrow=none;endArrow=classic;endSize=8;" edge="1" parent="1" source="bpmn_73" target="bpmn_22">
      <mxGeometry relative="1" as="geometry"/>
    </mxCell>
    <mxCell id="bpmn_77" value="Failed" style="edgeStyle=orthogonalEdgeStyle;rounded=0;orthogonalLoop=1;jettySize=auto;html=1;strokeWidth=2;strokeColor=#000000;endArrow=classic;endSize=8;" edge="1" parent="1" source="bpmn_71" target="bpmn_76">
      <mxGeometry relative="1" as="geometry"/>
    </mxCell>
    <mxCell id="bpmn_78" value="" style="edgeStyle=orthogonalEdgeStyle;rounded=0;orthogonalLoop=1;jettySize=auto;html=1;strokeWidth=1;strokeColor=#666666;dashed=1;dashPattern=3 3;startArrow=none;endArrow=none;" edge="1" parent="1" source="bpmn_28" target="bpmn_62">
      <mxGeometry relative="1" as="geometry"/>
    </mxCell>
    <mxCell id="bpmn_79" value="" style="edgeStyle=orthogonalEdgeStyle;rounded=0;orthogonalLoop=1;jettySize=auto;html=1;strokeWidth=1;strokeColor=#666666;dashed=1;dashPattern=3 3;startArrow=none;endArrow=none;" edge="1" parent="1" source="bpmn_52" target="bpmn_63">
      <mxGeometry relative="1" as="geometry"/>
    </mxCell>
    <mxCell id="bpmn_80" value="" style="edgeStyle=orthogonalEdgeStyle;rounded=0;orthogonalLoop=1;jettySize=auto;html=1;strokeWidth=1;strokeColor=#666666;dashed=1;dashPattern=3 3;startArrow=none;endArrow=none;" edge="1" parent="1" source="bpmn_46" target="bpmn_64">
      <mxGeometry relative="1" as="geometry"/>
    </mxCell>
    <mxCell id="bpmn_81" value="" style="edgeStyle=orthogonalEdgeStyle;rounded=0;orthogonalLoop=1;jettySize=auto;html=1;strokeWidth=1;strokeColor=#666666;dashed=1;dashPattern=3 3;startArrow=none;endArrow=none;" edge="1" parent="1" source="bpmn_32" target="bpmn_65">
      <mxGeometry relative="1" as="geometry"/>
    </mxCell>
    <mxCell id="bpmn_82" value="" style="edgeStyle=orthogonalEdgeStyle;rounded=0;orthogonalLoop=1;jettySize=auto;html=1;strokeWidth=1;strokeColor=#666666;dashed=1;dashPattern=3 3;startArrow=none;endArrow=none;" edge="1" parent="1" source="bpmn_54" target="bpmn_66">
      <mxGeometry relative="1" as="geometry"/>
    </mxCell>
      </root>
    </mxGraphModel>
  </diagram>
</mxfile>